<?xml version="1.0" standalone="no"?>
<!DOCTYPE svg PUBLIC "-//W3C//DTD SVG 20010904//EN"
 "http://www.w3.org/TR/2001/REC-SVG-20010904/DTD/svg10.dtd">
<svg version="1.0" xmlns="http://www.w3.org/2000/svg"
 width="900.000000pt" height="852.000000pt" viewBox="0 0 900.000000 852.000000"
 preserveAspectRatio="xMidYMid meet">

<g transform="translate(0.000000,852.000000) scale(0.100000,-0.100000)"
fill="#000000" stroke="none">
<path d="M4405 8071 c-43 -33 -532 -390 -1745 -1276 -307 -224 -1457 -1065
-1581 -1156 -165 -121 -216 -226 -174 -365 31 -106 136 -184 246 -184 85 0
129 21 283 133 78 57 149 106 158 110 9 3 88 59 175 123 87 65 239 176 338
247 99 72 275 201 390 287 116 86 235 173 265 195 30 21 188 136 350 255 162
119 482 353 710 520 228 167 466 341 529 387 l114 83 31 -23 c17 -13 99 -73
181 -132 138 -100 318 -232 990 -725 138 -101 347 -254 465 -340 118 -86 303
-221 410 -301 107 -80 227 -167 265 -194 39 -27 167 -121 285 -209 118 -88
228 -167 245 -175 16 -8 82 -53 145 -99 154 -115 204 -137 300 -137 64 0 83 5
122 28 92 53 134 135 126 240 -6 74 -33 131 -91 194 -23 25 -156 129 -297 231
-140 102 -306 223 -367 269 l-113 83 0 633 0 632 -332 57 -333 56 403 1 402 1
0 160 0 160 -690 0 -690 0 0 -160 0 -160 70 0 70 0 0 -285 c0 -157 -2 -285 -4
-285 -3 0 -114 80 -248 178 -134 98 -421 308 -638 467 -217 159 -464 339 -548
402 -84 62 -156 113 -160 113 -4 0 -30 -18 -57 -39z"/>
</g>
</svg>
